<mxfile host="app.diagrams.net" modified="2023-06-12T09:42:45.689Z" agent="Mozilla/5.0 (X11; Linux x86_64; rv:109.0) Gecko/20100101 Firefox/114.0" etag="mp5M1XAskt7AENxgyShL" version="21.3.7" type="device">
  <diagram name="Page-1" id="yECxYKSNMKmkPWpyOX2m">
    <mxGraphModel dx="522" dy="2264" grid="1" gridSize="10" guides="1" tooltips="1" connect="1" arrows="1" fold="1" page="1" pageScale="1" pageWidth="850" pageHeight="1100" math="0" shadow="0">
      <root>
        <mxCell id="0" />
        <mxCell id="1" parent="0" />
        <mxCell id="rNhwkPkqo46476lUVD65-53" style="edgeStyle=orthogonalEdgeStyle;rounded=0;orthogonalLoop=1;jettySize=auto;html=1;exitX=0;exitY=0;exitDx=145;exitDy=280;exitPerimeter=0;entryX=0.25;entryY=0;entryDx=0;entryDy=0;endArrow=none;endFill=0;strokeWidth=8;" edge="1" parent="1" source="rNhwkPkqo46476lUVD65-1" target="rNhwkPkqo46476lUVD65-46">
          <mxGeometry relative="1" as="geometry" />
        </mxCell>
        <mxCell id="rNhwkPkqo46476lUVD65-1" value="" style="shape=cube;whiteSpace=wrap;html=1;boundedLbl=1;backgroundOutline=1;darkOpacity=0.05;darkOpacity2=0.1;fillColor=none;" vertex="1" parent="1">
          <mxGeometry x="2000" y="40" width="270" height="280" as="geometry" />
        </mxCell>
        <mxCell id="rNhwkPkqo46476lUVD65-2" value="" style="rounded=0;whiteSpace=wrap;html=1;rotation=-30;" vertex="1" parent="1">
          <mxGeometry x="2210" y="115" width="30" height="10" as="geometry" />
        </mxCell>
        <mxCell id="rNhwkPkqo46476lUVD65-3" value="" style="rounded=0;whiteSpace=wrap;html=1;rotation=-30;" vertex="1" parent="1">
          <mxGeometry x="2190" y="85" width="30" height="10" as="geometry" />
        </mxCell>
        <mxCell id="rNhwkPkqo46476lUVD65-4" value="" style="shape=cylinder3;whiteSpace=wrap;html=1;boundedLbl=1;backgroundOutline=1;size=15;" vertex="1" parent="1">
          <mxGeometry x="2051.25" y="265" width="67.5" height="40" as="geometry" />
        </mxCell>
        <mxCell id="rNhwkPkqo46476lUVD65-5" value="" style="rounded=0;whiteSpace=wrap;html=1;rotation=-30;direction=south;" vertex="1" parent="1">
          <mxGeometry x="2110" y="125" width="100" height="20" as="geometry" />
        </mxCell>
        <mxCell id="rNhwkPkqo46476lUVD65-6" value="" style="rounded=0;whiteSpace=wrap;html=1;rotation=15;" vertex="1" parent="1">
          <mxGeometry x="2090" y="155" width="20" height="110" as="geometry" />
        </mxCell>
        <mxCell id="rNhwkPkqo46476lUVD65-7" value="" style="ellipse;whiteSpace=wrap;html=1;aspect=fixed;" vertex="1" parent="1">
          <mxGeometry x="2070" y="255" width="30" height="30" as="geometry" />
        </mxCell>
        <mxCell id="rNhwkPkqo46476lUVD65-8" value="" style="ellipse;whiteSpace=wrap;html=1;aspect=fixed;" vertex="1" parent="1">
          <mxGeometry x="2100" y="145" width="30" height="30" as="geometry" />
        </mxCell>
        <mxCell id="rNhwkPkqo46476lUVD65-9" value="" style="rounded=0;whiteSpace=wrap;html=1;rotation=60;" vertex="1" parent="1">
          <mxGeometry x="2180" y="105" width="50" height="10" as="geometry" />
        </mxCell>
        <mxCell id="rNhwkPkqo46476lUVD65-10" value="" style="endArrow=classic;startArrow=classic;html=1;rounded=1;" edge="1" parent="1">
          <mxGeometry width="50" height="50" relative="1" as="geometry">
            <mxPoint x="2090" y="155" as="sourcePoint" />
            <mxPoint x="2110" y="135" as="targetPoint" />
            <Array as="points">
              <mxPoint x="2090" y="135" />
            </Array>
          </mxGeometry>
        </mxCell>
        <mxCell id="rNhwkPkqo46476lUVD65-11" value="" style="endArrow=classic;startArrow=classic;html=1;rounded=1;" edge="1" parent="1">
          <mxGeometry width="50" height="50" relative="1" as="geometry">
            <mxPoint x="2048.75" y="265" as="sourcePoint" />
            <mxPoint x="2058.75" y="235" as="targetPoint" />
            <Array as="points">
              <mxPoint x="2040" y="245" />
            </Array>
          </mxGeometry>
        </mxCell>
        <mxCell id="rNhwkPkqo46476lUVD65-12" value="" style="endArrow=classic;startArrow=classic;html=1;rounded=1;" edge="1" parent="1">
          <mxGeometry width="50" height="50" relative="1" as="geometry">
            <mxPoint x="2040" y="295" as="sourcePoint" />
            <mxPoint x="2040" y="275" as="targetPoint" />
            <Array as="points">
              <mxPoint x="2030" y="285" />
            </Array>
          </mxGeometry>
        </mxCell>
        <mxCell id="rNhwkPkqo46476lUVD65-13" value="" style="endArrow=classic;startArrow=classic;html=1;rounded=0;" edge="1" parent="1">
          <mxGeometry width="50" height="50" relative="1" as="geometry">
            <mxPoint x="2250" y="105" as="sourcePoint" />
            <mxPoint x="2230" y="70" as="targetPoint" />
          </mxGeometry>
        </mxCell>
        <mxCell id="rNhwkPkqo46476lUVD65-54" style="edgeStyle=orthogonalEdgeStyle;rounded=0;orthogonalLoop=1;jettySize=auto;html=1;exitX=0;exitY=0;exitDx=145;exitDy=280;exitPerimeter=0;entryX=0.75;entryY=0;entryDx=0;entryDy=0;endArrow=none;endFill=0;strokeWidth=8;" edge="1" parent="1" source="rNhwkPkqo46476lUVD65-33" target="rNhwkPkqo46476lUVD65-46">
          <mxGeometry relative="1" as="geometry" />
        </mxCell>
        <mxCell id="rNhwkPkqo46476lUVD65-33" value="" style="shape=cube;whiteSpace=wrap;html=1;boundedLbl=1;backgroundOutline=1;darkOpacity=0.05;darkOpacity2=0.1;fillColor=none;" vertex="1" parent="1">
          <mxGeometry x="2440" y="40" width="270" height="280" as="geometry" />
        </mxCell>
        <mxCell id="rNhwkPkqo46476lUVD65-34" value="" style="rounded=0;whiteSpace=wrap;html=1;rotation=-30;" vertex="1" parent="1">
          <mxGeometry x="2650" y="115" width="30" height="10" as="geometry" />
        </mxCell>
        <mxCell id="rNhwkPkqo46476lUVD65-35" value="" style="rounded=0;whiteSpace=wrap;html=1;rotation=-30;" vertex="1" parent="1">
          <mxGeometry x="2630" y="85" width="30" height="10" as="geometry" />
        </mxCell>
        <mxCell id="rNhwkPkqo46476lUVD65-36" value="" style="shape=cylinder3;whiteSpace=wrap;html=1;boundedLbl=1;backgroundOutline=1;size=15;" vertex="1" parent="1">
          <mxGeometry x="2491.25" y="265" width="67.5" height="40" as="geometry" />
        </mxCell>
        <mxCell id="rNhwkPkqo46476lUVD65-37" value="" style="rounded=0;whiteSpace=wrap;html=1;rotation=-30;direction=south;" vertex="1" parent="1">
          <mxGeometry x="2550" y="125" width="100" height="20" as="geometry" />
        </mxCell>
        <mxCell id="rNhwkPkqo46476lUVD65-38" value="" style="rounded=0;whiteSpace=wrap;html=1;rotation=15;" vertex="1" parent="1">
          <mxGeometry x="2530" y="155" width="20" height="110" as="geometry" />
        </mxCell>
        <mxCell id="rNhwkPkqo46476lUVD65-39" value="" style="ellipse;whiteSpace=wrap;html=1;aspect=fixed;" vertex="1" parent="1">
          <mxGeometry x="2510" y="255" width="30" height="30" as="geometry" />
        </mxCell>
        <mxCell id="rNhwkPkqo46476lUVD65-40" value="" style="ellipse;whiteSpace=wrap;html=1;aspect=fixed;" vertex="1" parent="1">
          <mxGeometry x="2540" y="145" width="30" height="30" as="geometry" />
        </mxCell>
        <mxCell id="rNhwkPkqo46476lUVD65-41" value="" style="rounded=0;whiteSpace=wrap;html=1;rotation=60;" vertex="1" parent="1">
          <mxGeometry x="2620" y="105" width="50" height="10" as="geometry" />
        </mxCell>
        <mxCell id="rNhwkPkqo46476lUVD65-42" value="" style="endArrow=classic;startArrow=classic;html=1;rounded=1;" edge="1" parent="1">
          <mxGeometry width="50" height="50" relative="1" as="geometry">
            <mxPoint x="2530" y="155" as="sourcePoint" />
            <mxPoint x="2550" y="135" as="targetPoint" />
            <Array as="points">
              <mxPoint x="2530" y="135" />
            </Array>
          </mxGeometry>
        </mxCell>
        <mxCell id="rNhwkPkqo46476lUVD65-43" value="" style="endArrow=classic;startArrow=classic;html=1;rounded=1;" edge="1" parent="1">
          <mxGeometry width="50" height="50" relative="1" as="geometry">
            <mxPoint x="2488.75" y="265" as="sourcePoint" />
            <mxPoint x="2498.75" y="235" as="targetPoint" />
            <Array as="points">
              <mxPoint x="2480" y="245" />
            </Array>
          </mxGeometry>
        </mxCell>
        <mxCell id="rNhwkPkqo46476lUVD65-44" value="" style="endArrow=classic;startArrow=classic;html=1;rounded=1;" edge="1" parent="1">
          <mxGeometry width="50" height="50" relative="1" as="geometry">
            <mxPoint x="2480" y="295" as="sourcePoint" />
            <mxPoint x="2480" y="275" as="targetPoint" />
            <Array as="points">
              <mxPoint x="2470" y="285" />
            </Array>
          </mxGeometry>
        </mxCell>
        <mxCell id="rNhwkPkqo46476lUVD65-45" value="" style="endArrow=classic;startArrow=classic;html=1;rounded=0;" edge="1" parent="1">
          <mxGeometry width="50" height="50" relative="1" as="geometry">
            <mxPoint x="2690" y="105" as="sourcePoint" />
            <mxPoint x="2670" y="70" as="targetPoint" />
          </mxGeometry>
        </mxCell>
        <mxCell id="rNhwkPkqo46476lUVD65-46" value="&lt;div style=&quot;font-size: 50px;&quot;&gt;&lt;font style=&quot;font-size: 50px;&quot;&gt;Data Switch&lt;/font&gt;&lt;/div&gt;" style="rounded=0;whiteSpace=wrap;html=1;" vertex="1" parent="1">
          <mxGeometry x="2220" y="420" width="280" height="100" as="geometry" />
        </mxCell>
        <mxCell id="rNhwkPkqo46476lUVD65-55" style="edgeStyle=orthogonalEdgeStyle;rounded=0;orthogonalLoop=1;jettySize=auto;html=1;exitX=0.5;exitY=0;exitDx=0;exitDy=0;entryX=0.25;entryY=1;entryDx=0;entryDy=0;endArrow=none;endFill=0;strokeWidth=8;" edge="1" parent="1" source="rNhwkPkqo46476lUVD65-47" target="rNhwkPkqo46476lUVD65-46">
          <mxGeometry relative="1" as="geometry" />
        </mxCell>
        <mxCell id="rNhwkPkqo46476lUVD65-47" value="&lt;font style=&quot;font-size: 50px;&quot;&gt;PC1&lt;/font&gt;" style="whiteSpace=wrap;html=1;aspect=fixed;strokeWidth=4;" vertex="1" parent="1">
          <mxGeometry x="2000" y="630" width="120" height="120" as="geometry" />
        </mxCell>
        <mxCell id="rNhwkPkqo46476lUVD65-58" style="edgeStyle=orthogonalEdgeStyle;rounded=0;orthogonalLoop=1;jettySize=auto;html=1;exitX=0.5;exitY=0;exitDx=0;exitDy=0;entryX=0.75;entryY=1;entryDx=0;entryDy=0;endArrow=none;endFill=0;strokeWidth=8;" edge="1" parent="1" source="rNhwkPkqo46476lUVD65-48" target="rNhwkPkqo46476lUVD65-46">
          <mxGeometry relative="1" as="geometry" />
        </mxCell>
        <mxCell id="rNhwkPkqo46476lUVD65-48" value="&lt;font style=&quot;font-size: 50px;&quot;&gt;PC3&lt;/font&gt;" style="whiteSpace=wrap;html=1;aspect=fixed;strokeWidth=4;" vertex="1" parent="1">
          <mxGeometry x="2590" y="630" width="120" height="120" as="geometry" />
        </mxCell>
        <mxCell id="rNhwkPkqo46476lUVD65-56" style="edgeStyle=orthogonalEdgeStyle;rounded=0;orthogonalLoop=1;jettySize=auto;html=1;exitX=0.5;exitY=0;exitDx=0;exitDy=0;entryX=0.5;entryY=1;entryDx=0;entryDy=0;endArrow=none;endFill=0;strokeWidth=8;" edge="1" parent="1" source="rNhwkPkqo46476lUVD65-49" target="rNhwkPkqo46476lUVD65-46">
          <mxGeometry relative="1" as="geometry" />
        </mxCell>
        <mxCell id="rNhwkPkqo46476lUVD65-49" value="&lt;font style=&quot;font-size: 50px;&quot;&gt;PC2&lt;/font&gt;" style="whiteSpace=wrap;html=1;aspect=fixed;strokeWidth=4;" vertex="1" parent="1">
          <mxGeometry x="2300" y="630" width="120" height="120" as="geometry" />
        </mxCell>
        <mxCell id="rNhwkPkqo46476lUVD65-50" value="Robot Cell 1" style="text;html=1;strokeColor=none;fillColor=none;align=center;verticalAlign=middle;whiteSpace=wrap;rounded=0;fontSize=50;" vertex="1" parent="1">
          <mxGeometry x="1990" y="-40" width="290" height="80" as="geometry" />
        </mxCell>
        <mxCell id="rNhwkPkqo46476lUVD65-51" value="Robot Cell 2" style="text;html=1;strokeColor=none;fillColor=none;align=center;verticalAlign=middle;whiteSpace=wrap;rounded=0;fontSize=50;" vertex="1" parent="1">
          <mxGeometry x="2430" y="-40" width="290" height="80" as="geometry" />
        </mxCell>
      </root>
    </mxGraphModel>
  </diagram>
</mxfile>
